<svg width="98" height="18" fill="none" xmlns="http://www.w3.org/2000/svg"><g clip-path="url(#clip0)"><path fill-rule="evenodd" clip-rule="evenodd" d="M67.819 1.777a7.548 7.548 0 017.547 7.548V15.587c0 .71-.575 1.286-1.284 1.286h-6.263a7.548 7.548 0 110-15.096zm0 10.278a2.73 2.73 0 100-5.46 2.73 2.73 0 000 5.46z" fill="#F93511"/><path fill-rule="evenodd" clip-rule="evenodd" d="M30.353 1.777A7.548 7.548 0 0137.9 9.325V15.587c0 .71-.576 1.286-1.285 1.286h-6.263a7.548 7.548 0 110-15.096zm0 10.278a2.73 2.73 0 100-5.46 2.73 2.73 0 000 5.46z" fill="#0085FF"/><path fill-rule="evenodd" clip-rule="evenodd" d="M87.291 11.89l-5.03-9.963h9.957l-4.927 9.963z" fill="#18206D"/><path fill-rule="evenodd" clip-rule="evenodd" d="M82.261 1.927h-4.16c-.965 0-1.593 1.027-1.161 1.899l6.01 12.151a1.291 1.291 0 002.32 0l2.021-4.087-5.03-9.963z" fill="#0085FF"/><path d="M87.291 11.89l2.064 4.087c.488.967 1.88.967 2.369 0l6.134-12.151c.44-.872-.2-1.899-1.184-1.899h-4.456l-4.927 9.963z" fill="#F93511"/><path fill-rule="evenodd" clip-rule="evenodd" d="M10.49 6.74l-5.03 9.962h9.957L10.49 6.74z" fill="#18206D"/><path fill-rule="evenodd" clip-rule="evenodd" d="M5.46 16.702H1.3c-.965 0-1.593-1.026-1.161-1.898l6.01-12.152a1.291 1.291 0 012.32 0L10.49 6.74l-5.03 9.963z" fill="#0085FF"/><path d="M10.49 6.74l2.063-4.088c.488-.966 1.881-.966 2.37 0l6.134 12.152c.44.872-.2 1.898-1.184 1.898h-4.456L10.49 6.74z" fill="#F93511"/><path d="M57.628 4.225C55.27.536 50.464-.88 46.388 1.021l3.733 8.004 6.964-3.247c.592-.276.894-1.003.543-1.553z" fill="#F3AA1C"/><path d="M42.117 12.757a8.808 8.808 0 014.272-11.736l3.732 8.004-8.004 3.732z" fill="#ED2302"/><path d="M42.117 12.757c1.9 4.075 6.518 6.059 10.695 4.748.623-.196.82-.952.544-1.543L50.12 9.025l-8.004 3.732z" fill="#F93511"/><path d="M54.704 6.887c1.173 2.515.046 5.5-2.47 6.673L50.12 9.025l4.584-2.138z" fill="#0085FF"/><path d="M45.584 11.14a4.991 4.991 0 006.65 2.42L50.12 9.025l-4.536 2.115z" fill="#ED2302"/><path d="M44.57 8.227a1.625 1.625 0 102.947-1.374 1.625 1.625 0 00-2.947 1.374z" fill="#fff"/><path fill-rule="evenodd" clip-rule="evenodd" d="M46.356 8.21a.739.739 0 01-1.05-.629.295.295 0 10.199-.547.739.739 0 11.851 1.175z" fill="#18206D"/></g><defs><clipPath id="clip0"><path fill="#fff" d="M0 0h98v18H0z"/></clipPath></defs></svg>